<svg width="18" height="19" viewBox="0 0 18 19" fill="none" xmlns="http://www.w3.org/2000/svg">
<g clip-path="url(#clip0_1870_5970)">
<path d="M17.7727 2.57423L12.5227 0.324238C12.369 0.25825 12.1882 0.30325 12.0825 0.434488L10.5825 2.30946C10.5112 2.39795 10.4842 2.51348 10.509 2.62446C10.5322 2.73021 10.6012 2.81722 10.695 2.86897L5.98349 4.63595C5.58823 4.78445 5.24999 5.0657 5.03326 5.42721L3.47626 8.02218C3.14478 8.57494 3.11852 9.24916 3.40725 9.82516L3.51676 10.0441H1.87501C1.66801 10.0441 1.5 10.2122 1.5 10.4192V17.5441H0.37501C0.168011 17.5441 0 17.7121 0 17.9191C0 18.1261 0.168011 18.2941 0.37501 18.2941H13.1249C13.3319 18.2941 13.5 18.1261 13.5 17.9191C13.5 17.7121 13.3319 17.5441 13.1249 17.5441H12V12.2942C12 12.2657 11.9894 12.2409 11.9842 12.2147C12.6877 11.7384 13.4917 11.0034 14.193 9.86794C15.3847 7.94044 16.0544 6.38873 16.3297 5.69046L16.3717 5.71144C16.5322 5.79171 16.704 5.83143 16.8757 5.83143C17.0805 5.83143 17.2845 5.77518 17.4659 5.66195C17.8005 5.45569 17.9999 5.09794 17.9999 4.70496V2.91847C17.9999 2.76846 17.9107 2.63346 17.7727 2.57423ZM11.25 17.5441H2.25002V10.7942H4.13027C4.13927 10.7942 4.14827 10.7949 4.15801 10.7942H7.13098C6.79275 10.9997 6.37724 11.2584 5.85148 11.5929C5.45172 11.8472 5.17799 12.2416 5.08047 12.7051C4.98221 13.1686 5.07298 13.6419 5.33771 14.0379C5.67296 14.5426 6.22571 14.8171 6.7912 14.8171C7.0972 14.8171 7.4077 14.7361 7.68894 14.5689L10.2659 13.0231C10.4137 12.9871 10.7759 12.8829 11.2499 12.6466V17.5441H11.25ZM6.27149 9.09694C6.84523 8.85095 7.61248 8.40545 8.00173 7.95169C8.30097 8.12719 8.77196 8.35293 9.36072 8.46845C8.94222 8.98669 8.52221 9.61668 8.34446 10.063C8.3137 10.0547 8.28371 10.0442 8.24996 10.0442H6.7095C6.62997 9.67142 6.44625 9.34219 6.27149 9.09694ZM13.5569 9.47342C12.078 11.8659 10.0725 12.2987 10.053 12.3024C10.011 12.3114 9.96973 12.3271 9.93299 12.3489L7.305 13.9254C6.84752 14.2006 6.25802 14.0679 5.96102 13.6224C5.81101 13.3967 5.75926 13.1267 5.81477 12.8619C5.87102 12.5979 6.02701 12.3721 6.25503 12.2274C8.27028 10.9442 8.63401 10.8032 8.62652 10.7949C8.83426 10.7949 9.00076 10.6449 9.00076 10.4379C9.03901 10.2032 9.72226 9.10516 10.392 8.43541C10.4992 8.32815 10.5315 8.16692 10.473 8.02665C10.4152 7.88641 10.278 7.7949 10.1265 7.7949C8.95948 7.7949 8.1195 7.13414 8.11124 7.12739C7.99874 7.03813 7.84799 6.99615 7.71749 7.05915C7.58699 7.12141 7.5075 7.22941 7.5075 7.37341C7.37475 7.69516 5.9355 8.50892 5.625 8.54414C5.47049 8.54414 5.33324 8.63791 5.27699 8.7819C5.22074 8.9259 5.25825 9.08941 5.37149 9.19439C5.37599 9.19889 5.769 9.57239 5.92949 10.0441H4.35601L4.07926 9.48914C3.90601 9.14338 3.92102 8.73915 4.1205 8.40763L5.67749 5.81266C5.80799 5.59515 6.01049 5.42717 6.24747 5.33791L11.604 3.32941L15.6562 5.35514C15.4079 5.98893 14.7457 7.54968 13.5569 9.47342ZM17.2499 4.70644C17.2499 4.89544 17.1254 4.99219 17.0722 5.0252C17.0189 5.05821 16.8757 5.12571 16.7077 5.04169L11.4577 2.41673L12.4897 1.12748L17.2499 3.16748V4.70644H17.2499Z" fill="#637381"/>
</g>
<defs>
<clipPath id="clip0_1870_5970">
<rect width="18" height="18" fill="white" transform="translate(0 0.294098)"/>
</clipPath>
</defs>
</svg>
