<svg width="20" height="20" viewBox="0 0 20 20" fill="none" xmlns="http://www.w3.org/2000/svg">
<path d="M20 3.33331H0V16.6668H20V3.33331Z" fill="#F0F0F0"/>
<path d="M11.25 3.33321H8.75V8.74985H0V11.2498H8.75V16.6665H11.25V11.2498H20V8.74985H11.25V3.33321Z" fill="#D80027"/>
<path d="M15.3821 12.3187L19.9999 14.8841V12.3187H15.3821Z" fill="#0052B4"/>
<path d="M12.1738 12.3187L19.9999 16.6665V15.437L14.3869 12.3187H12.1738Z" fill="#0052B4"/>
<path d="M17.9153 16.6665L12.1738 13.4765V16.6665H17.9153Z" fill="#0052B4"/>
<path d="M12.1738 12.3187L19.9999 16.6665V15.437L14.3869 12.3187H12.1738Z" fill="#F0F0F0"/>
<path d="M12.1738 12.3187L19.9999 16.6665V15.437L14.3869 12.3187H12.1738Z" fill="#D80027"/>
<path d="M3.52895 12.3186L0 14.2791V12.3186H3.52895Z" fill="#0052B4"/>
<path d="M7.8262 12.8715V16.6664H0.99585L7.8262 12.8715Z" fill="#0052B4"/>
<path d="M5.61301 12.3187L0 15.437V16.6665L7.82609 12.3187H5.61301Z" fill="#D80027"/>
<path d="M4.61777 7.68102L0 5.11555V7.68102H4.61777Z" fill="#0052B4"/>
<path d="M7.82609 7.68102L0 3.33321V4.56266L5.61301 7.68102H7.82609Z" fill="#0052B4"/>
<path d="M2.08472 3.33321L7.8262 6.52321V3.33321H2.08472Z" fill="#0052B4"/>
<path d="M7.82609 7.68102L0 3.33321V4.56266L5.61301 7.68102H7.82609Z" fill="#F0F0F0"/>
<path d="M7.82609 7.68102L0 3.33321V4.56266L5.61301 7.68102H7.82609Z" fill="#D80027"/>
<path d="M16.4709 7.68108L19.9999 5.72054V7.68108H16.4709Z" fill="#0052B4"/>
<path d="M12.1738 7.1282V3.33324H19.0042L12.1738 7.1282Z" fill="#0052B4"/>
<path d="M14.3869 7.68102L19.9999 4.56266V3.33321L12.1738 7.68102H14.3869Z" fill="#D80027"/>
</svg>
