<svg width="25" height="25" viewBox="0 0 25 25" fill="none" xmlns="http://www.w3.org/2000/svg">
<path d="M13.2518 12.4896L3.98301 14.035C3.87645 14.0528 3.77645 14.0983 3.69306 14.167C3.60968 14.2357 3.54585 14.3251 3.508 14.4263L0.312181 22.9862C0.0069964 23.7737 0.830256 24.5243 1.58583 24.1465L23.7363 13.0728C23.8897 12.9962 24.0188 12.8784 24.109 12.7325C24.1992 12.5867 24.2469 12.4186 24.2469 12.2472C24.2469 12.0757 24.1992 11.9077 24.109 11.7618C24.0188 11.616 23.8897 11.4982 23.7363 11.4216L1.58583 0.347848C0.830256 -0.029889 0.0069964 0.721894 0.312181 1.50813L3.50923 10.0681C3.54691 10.1695 3.61066 10.2592 3.69405 10.3281C3.77745 10.397 3.87754 10.4427 3.98424 10.4606L13.253 12.0048C13.31 12.0148 13.3617 12.0446 13.399 12.0889C13.4362 12.1332 13.4566 12.1893 13.4566 12.2472C13.4566 12.3051 13.4362 12.3611 13.399 12.4055C13.3617 12.4498 13.31 12.4796 13.253 12.4896H13.2518Z" fill="#8BABD8"/>
</svg>
