<svg width="29" height="29" viewBox="0 0 29 29" fill="none" xmlns="http://www.w3.org/2000/svg">
<rect width="29" height="29" rx="5" fill="white"/>
<path d="M15.4038 23.4794L14.8356 23.6313C14.3997 23.7472 13.9397 23.5794 13.6838 23.2113L11.2519 19.7431L15.34 20.1791L16.1159 22.0272C16.3638 22.6272 16.0319 23.3113 15.4038 23.4794ZM7.51188 12.5231L6.19188 12.8791C5.33594 13.1109 4.82376 13.9909 5.05594 14.8472L5.89188 17.9672C6.12001 18.8231 7.00001 19.3313 7.86001 19.0991L9.18001 18.7472L7.51188 12.5231ZM20.6663 18.8081L17.4303 6.72969C17.3331 6.36626 16.9016 6.21407 16.5978 6.43532L8.67032 12.2147L10.3375 18.4366L20.0925 19.4784C20.4663 19.5184 20.7638 19.1706 20.6663 18.8081ZM21.1572 8.80626C21.0659 8.80626 20.9744 8.78313 20.89 8.73438C20.6338 8.58657 20.5463 8.25907 20.6941 8.00313L21.4681 6.66282C21.6156 6.40626 21.9441 6.31876 22.1994 6.46688C22.4556 6.61469 22.5431 6.94219 22.3953 7.19813L21.6213 8.53844C21.5219 8.71032 21.3419 8.80626 21.1572 8.80626ZM21.9216 12.5341C21.685 12.5341 21.4688 12.3763 21.4047 12.1372C21.3284 11.8516 21.4978 11.5581 21.7834 11.4813L23.2784 11.0809C23.5656 11.0047 23.8578 11.1734 23.9347 11.4597C24.0109 11.7453 23.8416 12.0388 23.5559 12.1156L22.0609 12.5159C22.0138 12.5284 21.9675 12.5341 21.9216 12.5341ZM24.4641 16.9188C24.3728 16.9188 24.2813 16.8956 24.1969 16.8469L22.8566 16.0728C22.6003 15.925 22.5128 15.5975 22.6606 15.3416C22.8084 15.085 23.1366 14.9975 23.3919 15.1456L24.7322 15.9197C24.9884 16.0675 25.0759 16.395 24.9281 16.6509C24.8291 16.8228 24.6488 16.9188 24.4641 16.9188Z" fill="#024187"/>
</svg>
