<svg width="32" height="32" viewBox="0 0 32 32" fill="none" xmlns="http://www.w3.org/2000/svg">
<path d="M7.38212 12.0696C7.74825 11.7035 7.74825 11.1099 7.38212 10.7438L6.05625 9.418C5.69019 9.05194 5.09656 9.05188 4.73044 9.418C4.36431 9.78413 4.36431 10.3777 4.73044 10.7438L6.05631 12.0696C6.4225 12.4358 7.01612 12.4358 7.38212 12.0696ZM16 8.5C16.5177 8.5 16.9375 8.08025 16.9375 7.5625V5.6875C16.9375 5.16975 16.5177 4.75 16 4.75C15.4823 4.75 15.0625 5.16975 15.0625 5.6875V7.5625C15.0625 8.08025 15.4823 8.5 16 8.5ZM2.875 19.75H0.9375C0.41975 19.75 0 20.1698 0 20.6875C0 21.2052 0.41975 21.625 0.9375 21.625H2.875C3.39275 21.625 3.8125 21.2052 3.8125 20.6875C3.8125 20.1698 3.39275 19.75 2.875 19.75ZM16 10.375C10.3137 10.375 5.6875 15.0012 5.6875 20.6875C5.6875 22.9397 6.40063 25.0794 7.74975 26.8756H24.2502C25.5994 25.0794 26.3125 22.9397 26.3125 20.6875C26.3125 15.0012 21.6863 10.375 16 10.375ZM31.0625 19.75H29.125C28.6073 19.75 28.1875 20.1698 28.1875 20.6875C28.1875 21.2052 28.6073 21.625 29.125 21.625H31.0625C31.5802 21.625 32 21.2052 32 20.6875C32 20.1698 31.5802 19.75 31.0625 19.75ZM25.9438 9.418L24.6179 10.7438C24.2517 11.1099 24.2517 11.7035 24.6179 12.0696C24.9839 12.4358 25.5776 12.4357 25.9437 12.0696L27.2696 10.7438C27.6357 10.3777 27.6357 9.78413 27.2696 9.418C26.9035 9.05188 26.3099 9.05194 25.9438 9.418Z" fill="url(#paint0_linear_1863_1940)"/>
<path d="M31.0625 25.375H0.9375C0.41975 25.375 0 25.7947 0 26.3125C0 26.8303 0.41975 27.25 0.9375 27.25H31.0625C31.5802 27.25 32 26.8303 32 26.3125C32 25.7947 31.5802 25.375 31.0625 25.375Z" fill="url(#paint1_linear_1863_1940)"/>
<defs>
<linearGradient id="paint0_linear_1863_1940" x1="16" y1="26.8756" x2="16" y2="4.75" gradientUnits="userSpaceOnUse">
<stop stop-color="#FD5900"/>
<stop offset="1" stop-color="#FFDE00"/>
</linearGradient>
<linearGradient id="paint1_linear_1863_1940" x1="16" y1="27.25" x2="16" y2="25.375" gradientUnits="userSpaceOnUse">
<stop stop-color="#FFE59A"/>
<stop offset="1" stop-color="#FFFFD5"/>
</linearGradient>
</defs>
</svg>
